# xmcd
#
# Track frame offsets:
#        150
#        12876
#        31551
#        45937
#
# Disc length: 898 seconds
#
# Revision: 0
# Processed by: cddbd v1.5.1PL0 Copyright (c) Steve Scherf et al.
# Submitted via: ExactAudioCopy v0.95a5
#
DISCID=1a038004
DTITLE=DXTOMI - TREASURE
DYEAR=2004
DGENRE=Fusion
TTITLE0=Ardor
TTITLE1=Treasure
TTITLE2=For Myself
TTITLE3=Tomorrow
EXTD=
EXTT0=
EXTT1=
EXTT2=
EXTT3=
PLAYORDER=
